<mxfile host="app.diagrams.net" agent="Mozilla/5.0 (X11; Linux x86_64) AppleWebKit/537.36 (KHTML, like Gecko) Chrome/131.0.0.0 Safari/537.36" version="26.0.5">
  <diagram name="Page-1" id="kLO8YpI22ivUnQoXJgwh">
    <mxGraphModel dx="1633" dy="780" grid="1" gridSize="10" guides="1" tooltips="1" connect="1" arrows="1" fold="1" page="1" pageScale="1" pageWidth="850" pageHeight="1100" background="none" math="0" shadow="0" adaptiveColors="auto">
      <root>
        <mxCell id="0" />
        <mxCell id="1" parent="0" />
        <mxCell id="GBtNbsu-M8GLhQdwbJQ9-1" value="CONSTANTS" style="whiteSpace=wrap;strokeWidth=2;labelBackgroundColor=none;fillColor=#F2CC8F;strokeColor=#E07A5F;fontColor=#393C56;" vertex="1" parent="1">
          <mxGeometry x="168" y="600" width="330" height="200" as="geometry" />
        </mxCell>
        <mxCell id="GBtNbsu-M8GLhQdwbJQ9-26" style="edgeStyle=orthogonalEdgeStyle;rounded=0;orthogonalLoop=1;jettySize=auto;html=1;exitX=0.5;exitY=1;exitDx=0;exitDy=0;entryX=0.5;entryY=0;entryDx=0;entryDy=0;strokeColor=#E07A5F;fontColor=#393C56;fillColor=#F2CC8F;" edge="1" parent="1" source="GBtNbsu-M8GLhQdwbJQ9-2" target="GBtNbsu-M8GLhQdwbJQ9-7">
          <mxGeometry relative="1" as="geometry" />
        </mxCell>
        <mxCell id="GBtNbsu-M8GLhQdwbJQ9-27" value="Network Communication" style="edgeLabel;html=1;align=center;verticalAlign=middle;resizable=0;points=[];strokeColor=#E07A5F;fontColor=#393C56;fillColor=#F2CC8F;" vertex="1" connectable="0" parent="GBtNbsu-M8GLhQdwbJQ9-26">
          <mxGeometry x="0.1348" y="-3" relative="1" as="geometry">
            <mxPoint as="offset" />
          </mxGeometry>
        </mxCell>
        <mxCell id="GBtNbsu-M8GLhQdwbJQ9-28" style="edgeStyle=orthogonalEdgeStyle;rounded=0;orthogonalLoop=1;jettySize=auto;html=1;exitX=0.5;exitY=1;exitDx=0;exitDy=0;entryX=0.5;entryY=0;entryDx=0;entryDy=0;strokeColor=#E07A5F;fontColor=#393C56;fillColor=#F2CC8F;" edge="1" parent="1" source="GBtNbsu-M8GLhQdwbJQ9-2" target="GBtNbsu-M8GLhQdwbJQ9-8">
          <mxGeometry relative="1" as="geometry" />
        </mxCell>
        <mxCell id="GBtNbsu-M8GLhQdwbJQ9-38" value="Fault Polling System" style="edgeLabel;html=1;align=center;verticalAlign=middle;resizable=0;points=[];strokeColor=#E07A5F;fontColor=#393C56;fillColor=#F2CC8F;" vertex="1" connectable="0" parent="GBtNbsu-M8GLhQdwbJQ9-28">
          <mxGeometry x="0.3653" y="-2" relative="1" as="geometry">
            <mxPoint y="15" as="offset" />
          </mxGeometry>
        </mxCell>
        <mxCell id="GBtNbsu-M8GLhQdwbJQ9-2" value="ESP32 Microcontroller" style="whiteSpace=wrap;strokeWidth=2;labelBackgroundColor=none;fillColor=#F2CC8F;strokeColor=#E07A5F;fontColor=#393C56;" vertex="1" parent="1">
          <mxGeometry x="490" y="190" width="216" height="54" as="geometry" />
        </mxCell>
        <mxCell id="GBtNbsu-M8GLhQdwbJQ9-3" value="LDR Sensor: Light Intensity" style="whiteSpace=wrap;strokeWidth=2;labelBackgroundColor=none;fillColor=#F2CC8F;strokeColor=#E07A5F;fontColor=#393C56;" vertex="1" parent="1">
          <mxGeometry x="20" y="20" width="252" height="80" as="geometry" />
        </mxCell>
        <mxCell id="GBtNbsu-M8GLhQdwbJQ9-4" value="Current Sensor: Current Flow" style="whiteSpace=wrap;strokeWidth=2;labelBackgroundColor=none;fillColor=#F2CC8F;strokeColor=#E07A5F;fontColor=#393C56;" vertex="1" parent="1">
          <mxGeometry x="322" y="20" width="260" height="78" as="geometry" />
        </mxCell>
        <mxCell id="GBtNbsu-M8GLhQdwbJQ9-5" value="Voltage Sensor: Voltage Level" style="whiteSpace=wrap;strokeWidth=2;labelBackgroundColor=none;fillColor=#F2CC8F;strokeColor=#E07A5F;fontColor=#393C56;" vertex="1" parent="1">
          <mxGeometry x="632" y="20" width="260" height="78" as="geometry" />
        </mxCell>
        <mxCell id="GBtNbsu-M8GLhQdwbJQ9-6" value="GPS Module: Location Data" style="whiteSpace=wrap;strokeWidth=2;labelBackgroundColor=none;fillColor=#F2CC8F;strokeColor=#E07A5F;fontColor=#393C56;" vertex="1" parent="1">
          <mxGeometry x="942" y="20" width="253" height="80" as="geometry" />
        </mxCell>
        <mxCell id="GBtNbsu-M8GLhQdwbJQ9-7" value="WiFi Module: Network Communication" style="whiteSpace=wrap;strokeWidth=2;labelBackgroundColor=none;fillColor=#F2CC8F;strokeColor=#E07A5F;fontColor=#393C56;" vertex="1" parent="1">
          <mxGeometry x="640" y="310" width="260" height="78" as="geometry" />
        </mxCell>
        <mxCell id="GBtNbsu-M8GLhQdwbJQ9-25" style="edgeStyle=orthogonalEdgeStyle;rounded=0;orthogonalLoop=1;jettySize=auto;html=1;exitX=0.5;exitY=1;exitDx=0;exitDy=0;entryX=0;entryY=0.5;entryDx=0;entryDy=0;strokeColor=#E07A5F;fontColor=#393C56;fillColor=#F2CC8F;" edge="1" parent="1" source="GBtNbsu-M8GLhQdwbJQ9-8" target="GBtNbsu-M8GLhQdwbJQ9-9">
          <mxGeometry relative="1" as="geometry" />
        </mxCell>
        <mxCell id="GBtNbsu-M8GLhQdwbJQ9-8" value="Fault Detection Logic" style="whiteSpace=wrap;strokeWidth=2;labelBackgroundColor=none;fillColor=#F2CC8F;strokeColor=#E07A5F;fontColor=#393C56;" vertex="1" parent="1">
          <mxGeometry x="380" y="310" width="213" height="80" as="geometry" />
        </mxCell>
        <mxCell id="GBtNbsu-M8GLhQdwbJQ9-32" style="edgeStyle=orthogonalEdgeStyle;rounded=0;orthogonalLoop=1;jettySize=auto;html=1;exitX=0.25;exitY=1;exitDx=0;exitDy=0;entryX=0.5;entryY=0;entryDx=0;entryDy=0;strokeColor=#E07A5F;fontColor=#393C56;fillColor=#F2CC8F;" edge="1" parent="1" source="GBtNbsu-M8GLhQdwbJQ9-9" target="GBtNbsu-M8GLhQdwbJQ9-10">
          <mxGeometry relative="1" as="geometry" />
        </mxCell>
        <mxCell id="GBtNbsu-M8GLhQdwbJQ9-33" value="Store Data" style="edgeLabel;html=1;align=center;verticalAlign=middle;resizable=0;points=[];strokeColor=#E07A5F;fontColor=#393C56;fillColor=#F2CC8F;" vertex="1" connectable="0" parent="GBtNbsu-M8GLhQdwbJQ9-32">
          <mxGeometry x="0.1156" y="-1" relative="1" as="geometry">
            <mxPoint as="offset" />
          </mxGeometry>
        </mxCell>
        <mxCell id="GBtNbsu-M8GLhQdwbJQ9-35" value="" style="edgeStyle=orthogonalEdgeStyle;rounded=0;orthogonalLoop=1;jettySize=auto;html=1;strokeColor=#E07A5F;fontColor=#393C56;fillColor=#F2CC8F;" edge="1" parent="1" source="GBtNbsu-M8GLhQdwbJQ9-9" target="GBtNbsu-M8GLhQdwbJQ9-34">
          <mxGeometry relative="1" as="geometry" />
        </mxCell>
        <mxCell id="GBtNbsu-M8GLhQdwbJQ9-9" value="Backend Server: Data Storage &amp; Alerts" style="whiteSpace=wrap;strokeWidth=2;labelBackgroundColor=none;fillColor=#F2CC8F;strokeColor=#E07A5F;fontColor=#393C56;" vertex="1" parent="1">
          <mxGeometry x="640" y="440" width="260" height="70" as="geometry" />
        </mxCell>
        <mxCell id="GBtNbsu-M8GLhQdwbJQ9-10" value="Dashboard: User Interface" style="whiteSpace=wrap;strokeWidth=2;labelBackgroundColor=none;fillColor=#F2CC8F;strokeColor=#E07A5F;fontColor=#393C56;" vertex="1" parent="1">
          <mxGeometry x="650" y="620" width="103.5" height="54" as="geometry" />
        </mxCell>
        <mxCell id="GBtNbsu-M8GLhQdwbJQ9-30" value="" style="edgeStyle=orthogonalEdgeStyle;rounded=0;orthogonalLoop=1;jettySize=auto;html=1;strokeColor=#E07A5F;fontColor=#393C56;fillColor=#F2CC8F;exitX=0.75;exitY=1;exitDx=0;exitDy=0;entryX=0.5;entryY=0;entryDx=0;entryDy=0;" edge="1" parent="1" source="GBtNbsu-M8GLhQdwbJQ9-9" target="GBtNbsu-M8GLhQdwbJQ9-11">
          <mxGeometry relative="1" as="geometry">
            <mxPoint x="892.0044827586207" y="620" as="sourcePoint" />
            <mxPoint x="790" y="550" as="targetPoint" />
          </mxGeometry>
        </mxCell>
        <mxCell id="GBtNbsu-M8GLhQdwbJQ9-31" value="Trigger Alerts" style="edgeLabel;html=1;align=center;verticalAlign=middle;resizable=0;points=[];strokeColor=#E07A5F;fontColor=#393C56;fillColor=#F2CC8F;" vertex="1" connectable="0" parent="GBtNbsu-M8GLhQdwbJQ9-30">
          <mxGeometry x="0.2038" relative="1" as="geometry">
            <mxPoint as="offset" />
          </mxGeometry>
        </mxCell>
        <mxCell id="GBtNbsu-M8GLhQdwbJQ9-11" value="Alert Notification System" style="whiteSpace=wrap;strokeWidth=2;labelBackgroundColor=none;fillColor=#F2CC8F;strokeColor=#E07A5F;fontColor=#393C56;" vertex="1" parent="1">
          <mxGeometry x="770" y="620" width="110" height="54" as="geometry" />
        </mxCell>
        <mxCell id="GBtNbsu-M8GLhQdwbJQ9-12" value="LDR_THRESHOLD = 500; CURRENT_THRESHOLD = 0.5; VOLTAGE_THRESHOLD = 220; FAULT_THRESHOLD = 3" style="whiteSpace=wrap;strokeWidth=2;labelBackgroundColor=none;fillColor=#F2CC8F;strokeColor=#E07A5F;fontColor=#393C56;" vertex="1" parent="1">
          <mxGeometry x="203" y="625" width="260" height="150" as="geometry" />
        </mxCell>
        <mxCell id="GBtNbsu-M8GLhQdwbJQ9-13" value="Light Intensity" style="curved=1;startArrow=none;endArrow=block;exitX=0.5;exitY=1;entryX=0;entryY=0.22;rounded=0;labelBackgroundColor=none;strokeColor=#E07A5F;fontColor=default;" edge="1" parent="1" source="GBtNbsu-M8GLhQdwbJQ9-3" target="GBtNbsu-M8GLhQdwbJQ9-2">
          <mxGeometry relative="1" as="geometry">
            <Array as="points">
              <mxPoint x="146" y="135" />
            </Array>
          </mxGeometry>
        </mxCell>
        <mxCell id="GBtNbsu-M8GLhQdwbJQ9-14" value="Current Value" style="curved=1;startArrow=none;endArrow=block;exitX=0.5;exitY=1;entryX=0.2;entryY=0;rounded=0;labelBackgroundColor=none;strokeColor=#E07A5F;fontColor=default;" edge="1" parent="1" source="GBtNbsu-M8GLhQdwbJQ9-4" target="GBtNbsu-M8GLhQdwbJQ9-2">
          <mxGeometry relative="1" as="geometry">
            <Array as="points">
              <mxPoint x="452" y="135" />
            </Array>
          </mxGeometry>
        </mxCell>
        <mxCell id="GBtNbsu-M8GLhQdwbJQ9-15" value="Voltage Level" style="curved=1;startArrow=none;endArrow=block;exitX=0.5;exitY=1;entryX=0.81;entryY=0;rounded=0;labelBackgroundColor=none;strokeColor=#E07A5F;fontColor=default;" edge="1" parent="1" source="GBtNbsu-M8GLhQdwbJQ9-5" target="GBtNbsu-M8GLhQdwbJQ9-2">
          <mxGeometry relative="1" as="geometry">
            <Array as="points">
              <mxPoint x="762" y="135" />
            </Array>
          </mxGeometry>
        </mxCell>
        <mxCell id="GBtNbsu-M8GLhQdwbJQ9-16" value="GPS Data" style="curved=1;startArrow=none;endArrow=block;exitX=0.5;exitY=1;entryX=1;entryY=0.22;rounded=0;labelBackgroundColor=none;strokeColor=#E07A5F;fontColor=default;" edge="1" parent="1" source="GBtNbsu-M8GLhQdwbJQ9-6" target="GBtNbsu-M8GLhQdwbJQ9-2">
          <mxGeometry relative="1" as="geometry">
            <Array as="points">
              <mxPoint x="1069" y="135" />
            </Array>
          </mxGeometry>
        </mxCell>
        <mxCell id="GBtNbsu-M8GLhQdwbJQ9-18" value="Compare with CONSTANTS" style="curved=1;startArrow=none;endArrow=block;exitX=0.28;exitY=1;entryX=0.5;entryY=0;rounded=0;labelBackgroundColor=none;strokeColor=#E07A5F;fontColor=default;" edge="1" parent="1" source="GBtNbsu-M8GLhQdwbJQ9-8" target="GBtNbsu-M8GLhQdwbJQ9-12">
          <mxGeometry relative="1" as="geometry">
            <Array as="points">
              <mxPoint x="333" y="564" />
            </Array>
          </mxGeometry>
        </mxCell>
        <mxCell id="GBtNbsu-M8GLhQdwbJQ9-21" value="Send Data" style="curved=1;startArrow=none;endArrow=block;exitX=0.5;exitY=1;entryX=0.5;entryY=0;rounded=0;labelBackgroundColor=none;strokeColor=#E07A5F;fontColor=default;" edge="1" parent="1" source="GBtNbsu-M8GLhQdwbJQ9-7" target="GBtNbsu-M8GLhQdwbJQ9-9">
          <mxGeometry relative="1" as="geometry">
            <Array as="points" />
          </mxGeometry>
        </mxCell>
        <mxCell id="GBtNbsu-M8GLhQdwbJQ9-36" style="edgeStyle=orthogonalEdgeStyle;rounded=0;orthogonalLoop=1;jettySize=auto;html=1;exitX=0.5;exitY=0;exitDx=0;exitDy=0;entryX=1;entryY=0.5;entryDx=0;entryDy=0;strokeColor=#E07A5F;fontColor=#393C56;fillColor=#F2CC8F;" edge="1" parent="1" source="GBtNbsu-M8GLhQdwbJQ9-34" target="GBtNbsu-M8GLhQdwbJQ9-2">
          <mxGeometry relative="1" as="geometry" />
        </mxCell>
        <mxCell id="GBtNbsu-M8GLhQdwbJQ9-37" value="Remote Control Command" style="edgeLabel;html=1;align=center;verticalAlign=middle;resizable=0;points=[];strokeColor=#E07A5F;fontColor=#393C56;fillColor=#F2CC8F;" vertex="1" connectable="0" parent="GBtNbsu-M8GLhQdwbJQ9-36">
          <mxGeometry x="-0.1085" y="1" relative="1" as="geometry">
            <mxPoint as="offset" />
          </mxGeometry>
        </mxCell>
        <mxCell id="GBtNbsu-M8GLhQdwbJQ9-34" value="Remote Control Logic" style="whiteSpace=wrap;html=1;fillColor=#F2CC8F;strokeColor=#E07A5F;fontColor=#393C56;strokeWidth=2;labelBackgroundColor=none;" vertex="1" parent="1">
          <mxGeometry x="993.5" y="310" width="150" height="80" as="geometry" />
        </mxCell>
      </root>
    </mxGraphModel>
  </diagram>
</mxfile>
